<mxfile host="app.diagrams.net" modified="2024-09-06T10:07:20.766Z" agent="Mozilla/5.0 (Windows NT 10.0; Win64; x64) AppleWebKit/537.36 (KHTML, like Gecko) Chrome/126.0.0.0 Safari/537.36 OPR/112.0.0.0" etag="E55vJu0k11wctMsTu6dy" version="22.1.17" type="device">
  <diagram name="Strona-1" id="qWliyduibzMxXebFFduB">
    <mxGraphModel dx="8380" dy="4013" grid="1" gridSize="10" guides="1" tooltips="1" connect="1" arrows="1" fold="1" page="1" pageScale="1" pageWidth="827" pageHeight="1169" math="0" shadow="0">
      <root>
        <mxCell id="0" />
        <mxCell id="1" parent="0" />
        <mxCell id="IgSBuEEvePQTgZvfwsGn-1" value="" style="rounded=0;whiteSpace=wrap;html=1;" vertex="1" parent="1">
          <mxGeometry x="320" y="380" width="1920" height="1080" as="geometry" />
        </mxCell>
        <mxCell id="IgSBuEEvePQTgZvfwsGn-2" value="&lt;font style=&quot;font-size: 36px;&quot;&gt;SKLEP MUZYCZNY&lt;/font&gt;" style="rounded=0;whiteSpace=wrap;html=1;" vertex="1" parent="1">
          <mxGeometry x="320" y="380" width="680" height="160" as="geometry" />
        </mxCell>
        <mxCell id="IgSBuEEvePQTgZvfwsGn-3" value="&lt;font style=&quot;font-size: 36px;&quot;&gt;REKLAMA NP. NOWEGO ALBUMU&lt;/font&gt;" style="rounded=0;whiteSpace=wrap;html=1;" vertex="1" parent="1">
          <mxGeometry x="1000" y="380" width="1080" height="160" as="geometry" />
        </mxCell>
        <mxCell id="IgSBuEEvePQTgZvfwsGn-4" value="&lt;font style=&quot;font-size: 36px;&quot;&gt;LINKI DO STRON Z KONKRETNYMI INSTRUMENTAMI&lt;/font&gt;" style="rounded=0;whiteSpace=wrap;html=1;" vertex="1" parent="1">
          <mxGeometry x="320" y="540" width="350" height="920" as="geometry" />
        </mxCell>
        <mxCell id="IgSBuEEvePQTgZvfwsGn-5" value="" style="rounded=0;whiteSpace=wrap;html=1;" vertex="1" parent="1">
          <mxGeometry x="2470" y="380" width="1920" height="1080" as="geometry" />
        </mxCell>
        <mxCell id="IgSBuEEvePQTgZvfwsGn-6" value="&lt;font style=&quot;font-size: 36px;&quot;&gt;SKLEP MUZYCZNY&lt;/font&gt;" style="rounded=0;whiteSpace=wrap;html=1;" vertex="1" parent="1">
          <mxGeometry x="2470" y="380" width="680" height="160" as="geometry" />
        </mxCell>
        <mxCell id="IgSBuEEvePQTgZvfwsGn-7" value="&lt;font style=&quot;font-size: 36px;&quot;&gt;REKLAMA NP. NOWEGO ALBUMU&lt;/font&gt;" style="rounded=0;whiteSpace=wrap;html=1;" vertex="1" parent="1">
          <mxGeometry x="3150" y="380" width="1080" height="160" as="geometry" />
        </mxCell>
        <mxCell id="IgSBuEEvePQTgZvfwsGn-8" value="&lt;font style=&quot;font-size: 36px;&quot;&gt;LINKI DO STRON Z KONKRETNYMI INSTRUMENTAMI&lt;/font&gt;" style="rounded=0;whiteSpace=wrap;html=1;" vertex="1" parent="1">
          <mxGeometry x="2470" y="540" width="350" height="920" as="geometry" />
        </mxCell>
        <mxCell id="IgSBuEEvePQTgZvfwsGn-9" value="&lt;font style=&quot;font-size: 24px;&quot;&gt;NAJBARDZIEJ SPRZEDAWANY INSTUMENT&lt;/font&gt;" style="rounded=0;whiteSpace=wrap;html=1;" vertex="1" parent="1">
          <mxGeometry x="740" y="580" width="1430" height="325" as="geometry" />
        </mxCell>
        <mxCell id="IgSBuEEvePQTgZvfwsGn-10" value="&lt;font style=&quot;font-size: 36px;&quot;&gt;NOWA PŁYTA&lt;/font&gt;" style="rounded=0;whiteSpace=wrap;html=1;" vertex="1" parent="1">
          <mxGeometry x="740" y="960" width="370" height="370" as="geometry" />
        </mxCell>
        <mxCell id="IgSBuEEvePQTgZvfwsGn-11" value="&lt;font style=&quot;font-size: 36px;&quot;&gt;NOWY INSTRUMENT&lt;/font&gt;" style="rounded=0;whiteSpace=wrap;html=1;" vertex="1" parent="1">
          <mxGeometry x="1270" y="960" width="370" height="370" as="geometry" />
        </mxCell>
        <mxCell id="IgSBuEEvePQTgZvfwsGn-12" value="&lt;font style=&quot;font-size: 36px;&quot;&gt;NOWY WINYL&lt;/font&gt;" style="rounded=0;whiteSpace=wrap;html=1;" vertex="1" parent="1">
          <mxGeometry x="1800" y="960" width="370" height="370" as="geometry" />
        </mxCell>
        <mxCell id="IgSBuEEvePQTgZvfwsGn-18" value="&lt;font style=&quot;font-size: 36px;&quot;&gt;DODAJ DO KOSZYKA - guzik, który po kliknięciu dodaje do koszyka przedmiot&lt;br&gt;&lt;/font&gt;" style="text;html=1;strokeColor=none;fillColor=none;align=center;verticalAlign=middle;whiteSpace=wrap;rounded=0;" vertex="1" parent="1">
          <mxGeometry x="895" y="1650" width="360" height="30" as="geometry" />
        </mxCell>
        <mxCell id="IgSBuEEvePQTgZvfwsGn-20" value="&lt;font style=&quot;font-size: 36px;&quot;&gt;CENA&lt;/font&gt;" style="rounded=0;whiteSpace=wrap;html=1;" vertex="1" parent="1">
          <mxGeometry x="740" y="1360" width="310" height="60" as="geometry" />
        </mxCell>
        <mxCell id="IgSBuEEvePQTgZvfwsGn-22" value="" style="whiteSpace=wrap;html=1;aspect=fixed;" vertex="1" parent="1">
          <mxGeometry x="1050" y="1360" width="60" height="60" as="geometry" />
        </mxCell>
        <mxCell id="IgSBuEEvePQTgZvfwsGn-25" value="" style="endArrow=classic;html=1;rounded=0;" edge="1" parent="1" target="IgSBuEEvePQTgZvfwsGn-22">
          <mxGeometry width="50" height="50" relative="1" as="geometry">
            <mxPoint x="1080" y="1540" as="sourcePoint" />
            <mxPoint x="1390" y="1390" as="targetPoint" />
          </mxGeometry>
        </mxCell>
        <mxCell id="IgSBuEEvePQTgZvfwsGn-26" value="&lt;font style=&quot;font-size: 36px;&quot;&gt;CENA&lt;/font&gt;" style="rounded=0;whiteSpace=wrap;html=1;" vertex="1" parent="1">
          <mxGeometry x="1270" y="1360" width="310" height="60" as="geometry" />
        </mxCell>
        <mxCell id="IgSBuEEvePQTgZvfwsGn-27" value="&lt;font style=&quot;font-size: 36px;&quot;&gt;CENA&lt;/font&gt;" style="rounded=0;whiteSpace=wrap;html=1;" vertex="1" parent="1">
          <mxGeometry x="1800" y="1360" width="310" height="60" as="geometry" />
        </mxCell>
        <mxCell id="IgSBuEEvePQTgZvfwsGn-28" value="" style="whiteSpace=wrap;html=1;aspect=fixed;" vertex="1" parent="1">
          <mxGeometry x="1580" y="1360" width="60" height="60" as="geometry" />
        </mxCell>
        <mxCell id="IgSBuEEvePQTgZvfwsGn-29" value="" style="whiteSpace=wrap;html=1;aspect=fixed;" vertex="1" parent="1">
          <mxGeometry x="2110" y="1360" width="60" height="60" as="geometry" />
        </mxCell>
        <mxCell id="IgSBuEEvePQTgZvfwsGn-31" value="" style="rounded=0;whiteSpace=wrap;html=1;" vertex="1" parent="1">
          <mxGeometry x="2220" y="570" width="10" height="860" as="geometry" />
        </mxCell>
        <mxCell id="IgSBuEEvePQTgZvfwsGn-32" value="" style="rounded=0;whiteSpace=wrap;html=1;" vertex="1" parent="1">
          <mxGeometry x="330" y="1840" width="1920" height="170" as="geometry" />
        </mxCell>
        <mxCell id="IgSBuEEvePQTgZvfwsGn-33" value="&lt;font style=&quot;font-size: 36px;&quot;&gt;DÓŁ STRONY&lt;/font&gt;" style="text;html=1;strokeColor=none;fillColor=none;align=center;verticalAlign=middle;whiteSpace=wrap;rounded=0;" vertex="1" parent="1">
          <mxGeometry x="1630" y="1660" width="330" height="30" as="geometry" />
        </mxCell>
        <mxCell id="IgSBuEEvePQTgZvfwsGn-34" value="" style="endArrow=classic;html=1;rounded=0;exitX=0.5;exitY=1;exitDx=0;exitDy=0;" edge="1" parent="1" source="IgSBuEEvePQTgZvfwsGn-33">
          <mxGeometry width="50" height="50" relative="1" as="geometry">
            <mxPoint x="1260" y="1960" as="sourcePoint" />
            <mxPoint x="1800" y="1820" as="targetPoint" />
          </mxGeometry>
        </mxCell>
        <mxCell id="IgSBuEEvePQTgZvfwsGn-35" value="" style="endArrow=none;html=1;rounded=0;entryX=1;entryY=0.25;entryDx=0;entryDy=0;exitX=0;exitY=0.25;exitDx=0;exitDy=0;" edge="1" parent="1" source="IgSBuEEvePQTgZvfwsGn-32" target="IgSBuEEvePQTgZvfwsGn-32">
          <mxGeometry width="50" height="50" relative="1" as="geometry">
            <mxPoint x="1260" y="1960" as="sourcePoint" />
            <mxPoint x="1310" y="1910" as="targetPoint" />
          </mxGeometry>
        </mxCell>
        <mxCell id="IgSBuEEvePQTgZvfwsGn-36" value="&lt;font style=&quot;font-size: 36px;&quot;&gt;KONTAKT, WYKONANIE ITP.&lt;/font&gt;" style="text;html=1;strokeColor=none;fillColor=none;align=center;verticalAlign=middle;whiteSpace=wrap;rounded=0;" vertex="1" parent="1">
          <mxGeometry x="935" y="1930" width="710" height="30" as="geometry" />
        </mxCell>
        <mxCell id="IgSBuEEvePQTgZvfwsGn-37" value="&lt;font style=&quot;font-size: 36px;&quot;&gt;KOSZYK&lt;/font&gt;" style="rounded=0;whiteSpace=wrap;html=1;" vertex="1" parent="1">
          <mxGeometry x="2080" y="380" width="160" height="160" as="geometry" />
        </mxCell>
        <mxCell id="IgSBuEEvePQTgZvfwsGn-38" value="&lt;font style=&quot;font-size: 36px;&quot;&gt;KOSZYK&lt;/font&gt;" style="rounded=0;whiteSpace=wrap;html=1;" vertex="1" parent="1">
          <mxGeometry x="4230" y="380" width="160" height="160" as="geometry" />
        </mxCell>
        <mxCell id="IgSBuEEvePQTgZvfwsGn-41" value="&lt;font style=&quot;font-size: 36px;&quot;&gt;WYBRANIE INSTRUMENTÓW, NP STRUNOWYCH&lt;/font&gt;" style="text;html=1;strokeColor=none;fillColor=none;align=center;verticalAlign=middle;whiteSpace=wrap;rounded=0;" vertex="1" parent="1">
          <mxGeometry x="3070" y="210" width="850" height="30" as="geometry" />
        </mxCell>
        <mxCell id="IgSBuEEvePQTgZvfwsGn-43" value="" style="endArrow=classic;html=1;rounded=0;exitX=0.5;exitY=1;exitDx=0;exitDy=0;" edge="1" parent="1" source="IgSBuEEvePQTgZvfwsGn-41">
          <mxGeometry width="50" height="50" relative="1" as="geometry">
            <mxPoint x="3480" y="360" as="sourcePoint" />
            <mxPoint x="3495" y="360" as="targetPoint" />
          </mxGeometry>
        </mxCell>
        <mxCell id="IgSBuEEvePQTgZvfwsGn-44" value="" style="rounded=0;whiteSpace=wrap;html=1;" vertex="1" parent="1">
          <mxGeometry x="2895" y="580" width="1425" height="260" as="geometry" />
        </mxCell>
        <mxCell id="IgSBuEEvePQTgZvfwsGn-52" value="&lt;font style=&quot;font-size: 24px;&quot;&gt;ZDJĘCIE INSTRUMENTU&lt;/font&gt;" style="rounded=0;whiteSpace=wrap;html=1;" vertex="1" parent="1">
          <mxGeometry x="2910" y="600" width="220" height="220" as="geometry" />
        </mxCell>
        <mxCell id="IgSBuEEvePQTgZvfwsGn-55" value="&lt;font style=&quot;font-size: 36px;&quot;&gt;NAZWA INSTRUMENTU&lt;/font&gt;" style="rounded=0;whiteSpace=wrap;html=1;" vertex="1" parent="1">
          <mxGeometry x="3150" y="600" width="500" height="40" as="geometry" />
        </mxCell>
        <mxCell id="IgSBuEEvePQTgZvfwsGn-56" value="&lt;font style=&quot;font-size: 36px;&quot;&gt;KRÓTKI OPIS, CIEKAWOSTKI&lt;/font&gt;" style="rounded=0;whiteSpace=wrap;html=1;" vertex="1" parent="1">
          <mxGeometry x="3150" y="650" width="870" height="170" as="geometry" />
        </mxCell>
        <mxCell id="IgSBuEEvePQTgZvfwsGn-57" value="&lt;font style=&quot;font-size: 36px;&quot;&gt;CENA&lt;/font&gt;" style="rounded=0;whiteSpace=wrap;html=1;" vertex="1" parent="1">
          <mxGeometry x="4040" y="600" width="250" height="40" as="geometry" />
        </mxCell>
        <mxCell id="IgSBuEEvePQTgZvfwsGn-59" value="&lt;font style=&quot;font-size: 36px;&quot;&gt;ZOBACZ PRODUKT&lt;/font&gt;" style="rounded=0;whiteSpace=wrap;html=1;" vertex="1" parent="1">
          <mxGeometry x="4040" y="650" width="250" height="170" as="geometry" />
        </mxCell>
        <mxCell id="IgSBuEEvePQTgZvfwsGn-60" value="" style="rounded=0;whiteSpace=wrap;html=1;" vertex="1" parent="1">
          <mxGeometry x="4650" y="380" width="1920" height="1080" as="geometry" />
        </mxCell>
        <mxCell id="IgSBuEEvePQTgZvfwsGn-61" value="&lt;font style=&quot;font-size: 36px;&quot;&gt;SKLEP MUZYCZNY&lt;/font&gt;" style="rounded=0;whiteSpace=wrap;html=1;" vertex="1" parent="1">
          <mxGeometry x="4650" y="380" width="680" height="160" as="geometry" />
        </mxCell>
        <mxCell id="IgSBuEEvePQTgZvfwsGn-62" value="&lt;font style=&quot;font-size: 36px;&quot;&gt;REKLAMA NP. NOWEGO ALBUMU&lt;/font&gt;" style="rounded=0;whiteSpace=wrap;html=1;" vertex="1" parent="1">
          <mxGeometry x="5330" y="380" width="1080" height="160" as="geometry" />
        </mxCell>
        <mxCell id="IgSBuEEvePQTgZvfwsGn-63" value="&lt;font style=&quot;font-size: 36px;&quot;&gt;LINKI DO STRON Z KONKRETNYMI INSTRUMENTAMI&lt;/font&gt;" style="rounded=0;whiteSpace=wrap;html=1;" vertex="1" parent="1">
          <mxGeometry x="4650" y="540" width="350" height="920" as="geometry" />
        </mxCell>
        <mxCell id="IgSBuEEvePQTgZvfwsGn-64" value="&lt;font style=&quot;font-size: 36px;&quot;&gt;KOSZYK&lt;/font&gt;" style="rounded=0;whiteSpace=wrap;html=1;" vertex="1" parent="1">
          <mxGeometry x="6410" y="380" width="160" height="160" as="geometry" />
        </mxCell>
        <mxCell id="IgSBuEEvePQTgZvfwsGn-72" value="" style="rounded=0;whiteSpace=wrap;html=1;" vertex="1" parent="1">
          <mxGeometry x="2895" y="880" width="1425" height="260" as="geometry" />
        </mxCell>
        <mxCell id="IgSBuEEvePQTgZvfwsGn-73" value="&lt;font style=&quot;font-size: 24px;&quot;&gt;ZDJĘCIE INSTRUMENTU&lt;/font&gt;" style="rounded=0;whiteSpace=wrap;html=1;" vertex="1" parent="1">
          <mxGeometry x="2910" y="900" width="220" height="220" as="geometry" />
        </mxCell>
        <mxCell id="IgSBuEEvePQTgZvfwsGn-74" value="&lt;font style=&quot;font-size: 36px;&quot;&gt;NAZWA INSTRUMENTU&lt;/font&gt;" style="rounded=0;whiteSpace=wrap;html=1;" vertex="1" parent="1">
          <mxGeometry x="3150" y="900" width="500" height="40" as="geometry" />
        </mxCell>
        <mxCell id="IgSBuEEvePQTgZvfwsGn-75" value="&lt;font style=&quot;font-size: 36px;&quot;&gt;KRÓTKI OPIS, CIEKAWOSTKI&lt;/font&gt;" style="rounded=0;whiteSpace=wrap;html=1;" vertex="1" parent="1">
          <mxGeometry x="3150" y="950" width="870" height="170" as="geometry" />
        </mxCell>
        <mxCell id="IgSBuEEvePQTgZvfwsGn-76" value="&lt;font style=&quot;font-size: 36px;&quot;&gt;CENA&lt;/font&gt;" style="rounded=0;whiteSpace=wrap;html=1;" vertex="1" parent="1">
          <mxGeometry x="4040" y="900" width="250" height="40" as="geometry" />
        </mxCell>
        <mxCell id="IgSBuEEvePQTgZvfwsGn-77" value="&lt;font style=&quot;font-size: 36px;&quot;&gt;ZOBACZ PRODUKT&lt;/font&gt;" style="rounded=0;whiteSpace=wrap;html=1;" vertex="1" parent="1">
          <mxGeometry x="4040" y="950" width="250" height="170" as="geometry" />
        </mxCell>
        <mxCell id="IgSBuEEvePQTgZvfwsGn-78" value="" style="rounded=0;whiteSpace=wrap;html=1;" vertex="1" parent="1">
          <mxGeometry x="2895" y="1180" width="1425" height="260" as="geometry" />
        </mxCell>
        <mxCell id="IgSBuEEvePQTgZvfwsGn-79" value="&lt;font style=&quot;font-size: 24px;&quot;&gt;ZDJĘCIE INSTRUMENTU&lt;/font&gt;" style="rounded=0;whiteSpace=wrap;html=1;" vertex="1" parent="1">
          <mxGeometry x="2910" y="1200" width="220" height="220" as="geometry" />
        </mxCell>
        <mxCell id="IgSBuEEvePQTgZvfwsGn-80" value="&lt;font style=&quot;font-size: 36px;&quot;&gt;NAZWA INSTRUMENTU&lt;/font&gt;" style="rounded=0;whiteSpace=wrap;html=1;" vertex="1" parent="1">
          <mxGeometry x="3150" y="1200" width="500" height="40" as="geometry" />
        </mxCell>
        <mxCell id="IgSBuEEvePQTgZvfwsGn-81" value="&lt;font style=&quot;font-size: 36px;&quot;&gt;KRÓTKI OPIS, CIEKAWOSTKI&lt;/font&gt;" style="rounded=0;whiteSpace=wrap;html=1;" vertex="1" parent="1">
          <mxGeometry x="3150" y="1250" width="870" height="170" as="geometry" />
        </mxCell>
        <mxCell id="IgSBuEEvePQTgZvfwsGn-82" value="&lt;font style=&quot;font-size: 36px;&quot;&gt;CENA&lt;/font&gt;" style="rounded=0;whiteSpace=wrap;html=1;" vertex="1" parent="1">
          <mxGeometry x="4040" y="1200" width="250" height="40" as="geometry" />
        </mxCell>
        <mxCell id="IgSBuEEvePQTgZvfwsGn-83" value="&lt;font style=&quot;font-size: 36px;&quot;&gt;ZOBACZ PRODUKT&lt;/font&gt;" style="rounded=0;whiteSpace=wrap;html=1;" vertex="1" parent="1">
          <mxGeometry x="4040" y="1250" width="250" height="170" as="geometry" />
        </mxCell>
        <mxCell id="IgSBuEEvePQTgZvfwsGn-84" value="" style="ellipse;whiteSpace=wrap;html=1;aspect=fixed;" vertex="1" parent="1">
          <mxGeometry x="4330" y="870" width="50" height="50" as="geometry" />
        </mxCell>
        <mxCell id="IgSBuEEvePQTgZvfwsGn-85" value="" style="ellipse;whiteSpace=wrap;html=1;aspect=fixed;" vertex="1" parent="1">
          <mxGeometry x="4330" y="945" width="50" height="50" as="geometry" />
        </mxCell>
        <mxCell id="IgSBuEEvePQTgZvfwsGn-86" value="" style="ellipse;whiteSpace=wrap;html=1;aspect=fixed;" vertex="1" parent="1">
          <mxGeometry x="4330" y="1020" width="50" height="50" as="geometry" />
        </mxCell>
        <mxCell id="IgSBuEEvePQTgZvfwsGn-87" value="" style="ellipse;whiteSpace=wrap;html=1;aspect=fixed;" vertex="1" parent="1">
          <mxGeometry x="4330" y="1100" width="50" height="50" as="geometry" />
        </mxCell>
        <mxCell id="IgSBuEEvePQTgZvfwsGn-89" value="&lt;font style=&quot;font-size: 36px;&quot;&gt;ZDJĘCIE&lt;/font&gt;" style="whiteSpace=wrap;html=1;aspect=fixed;" vertex="1" parent="1">
          <mxGeometry x="5330" y="630" width="400" height="400" as="geometry" />
        </mxCell>
        <mxCell id="IgSBuEEvePQTgZvfwsGn-90" value="&lt;font style=&quot;font-size: 36px;&quot;&gt;NAZWA&lt;/font&gt;" style="rounded=0;whiteSpace=wrap;html=1;" vertex="1" parent="1">
          <mxGeometry x="5780" y="630" width="461" height="60" as="geometry" />
        </mxCell>
        <mxCell id="IgSBuEEvePQTgZvfwsGn-91" value="&lt;font style=&quot;font-size: 36px;&quot;&gt;ILOŚĆ&lt;/font&gt;" style="rounded=0;whiteSpace=wrap;html=1;" vertex="1" parent="1">
          <mxGeometry x="5961" y="970" width="220" height="60" as="geometry" />
        </mxCell>
        <mxCell id="IgSBuEEvePQTgZvfwsGn-92" value="" style="rounded=0;whiteSpace=wrap;html=1;" vertex="1" parent="1">
          <mxGeometry x="6181" y="970" width="60" height="60" as="geometry" />
        </mxCell>
        <mxCell id="IgSBuEEvePQTgZvfwsGn-105" style="edgeStyle=orthogonalEdgeStyle;rounded=0;orthogonalLoop=1;jettySize=auto;html=1;exitX=0;exitY=0.5;exitDx=0;exitDy=0;entryX=1;entryY=0.5;entryDx=0;entryDy=0;" edge="1" parent="1" source="IgSBuEEvePQTgZvfwsGn-95" target="IgSBuEEvePQTgZvfwsGn-92">
          <mxGeometry relative="1" as="geometry" />
        </mxCell>
        <mxCell id="IgSBuEEvePQTgZvfwsGn-95" value="&lt;font style=&quot;font-size: 36px;&quot;&gt;GUZIK DODAJ DO KOSZYKA&lt;/font&gt;" style="text;html=1;strokeColor=none;fillColor=none;align=center;verticalAlign=middle;whiteSpace=wrap;rounded=0;" vertex="1" parent="1">
          <mxGeometry x="6690" y="985" width="490" height="30" as="geometry" />
        </mxCell>
        <mxCell id="IgSBuEEvePQTgZvfwsGn-98" value="&lt;font style=&quot;font-size: 36px;&quot;&gt;CENA&lt;/font&gt;" style="rounded=0;whiteSpace=wrap;html=1;" vertex="1" parent="1">
          <mxGeometry x="5962" y="730" width="279" height="60" as="geometry" />
        </mxCell>
        <mxCell id="IgSBuEEvePQTgZvfwsGn-101" value="&lt;font style=&quot;font-size: 36px;&quot;&gt;OPIS&lt;/font&gt;" style="rounded=0;whiteSpace=wrap;html=1;" vertex="1" parent="1">
          <mxGeometry x="5330" y="1070" width="911" height="330" as="geometry" />
        </mxCell>
        <mxCell id="IgSBuEEvePQTgZvfwsGn-103" value="&lt;font style=&quot;font-size: 36px;&quot;&gt;LEKKO CIEMNIEJSZE TŁO&lt;/font&gt;" style="rounded=0;whiteSpace=wrap;html=1;" vertex="1" parent="1">
          <mxGeometry x="5000" y="540" width="210" height="920" as="geometry" />
        </mxCell>
        <mxCell id="IgSBuEEvePQTgZvfwsGn-104" value="&lt;font style=&quot;font-size: 36px;&quot;&gt;LEKKO CIEMNIEJSZE TŁO&lt;/font&gt;" style="rounded=0;whiteSpace=wrap;html=1;" vertex="1" parent="1">
          <mxGeometry x="6360" y="540" width="210" height="920" as="geometry" />
        </mxCell>
        <mxCell id="IgSBuEEvePQTgZvfwsGn-107" value="&lt;font style=&quot;font-size: 36px;&quot;&gt;ZAKUP KONKRETNEGO PRZEDMIOTU&lt;/font&gt;" style="text;html=1;strokeColor=none;fillColor=none;align=center;verticalAlign=middle;whiteSpace=wrap;rounded=0;" vertex="1" parent="1">
          <mxGeometry x="5310" y="210" width="900" height="30" as="geometry" />
        </mxCell>
        <mxCell id="IgSBuEEvePQTgZvfwsGn-108" value="" style="endArrow=classic;html=1;rounded=0;entryX=0.402;entryY=-0.031;entryDx=0;entryDy=0;entryPerimeter=0;" edge="1" parent="1" source="IgSBuEEvePQTgZvfwsGn-107" target="IgSBuEEvePQTgZvfwsGn-62">
          <mxGeometry width="50" height="50" relative="1" as="geometry">
            <mxPoint x="5790" y="130" as="sourcePoint" />
            <mxPoint x="5840" y="80" as="targetPoint" />
          </mxGeometry>
        </mxCell>
        <mxCell id="IgSBuEEvePQTgZvfwsGn-109" value="&lt;font style=&quot;font-size: 36px;&quot;&gt;STRONA GŁÓWNA&lt;/font&gt;" style="text;html=1;strokeColor=none;fillColor=none;align=center;verticalAlign=middle;whiteSpace=wrap;rounded=0;" vertex="1" parent="1">
          <mxGeometry x="1080" y="220" width="430" height="30" as="geometry" />
        </mxCell>
        <mxCell id="IgSBuEEvePQTgZvfwsGn-110" style="edgeStyle=orthogonalEdgeStyle;rounded=0;orthogonalLoop=1;jettySize=auto;html=1;exitX=0.5;exitY=1;exitDx=0;exitDy=0;entryX=0.274;entryY=0.013;entryDx=0;entryDy=0;entryPerimeter=0;" edge="1" parent="1" source="IgSBuEEvePQTgZvfwsGn-109" target="IgSBuEEvePQTgZvfwsGn-3">
          <mxGeometry relative="1" as="geometry" />
        </mxCell>
        <mxCell id="IgSBuEEvePQTgZvfwsGn-111" value="" style="rounded=0;whiteSpace=wrap;html=1;" vertex="1" parent="1">
          <mxGeometry x="4650" y="1640" width="1920" height="1080" as="geometry" />
        </mxCell>
        <mxCell id="IgSBuEEvePQTgZvfwsGn-112" value="&lt;font style=&quot;font-size: 36px;&quot;&gt;SKLEP MUZYCZNY&lt;/font&gt;" style="rounded=0;whiteSpace=wrap;html=1;" vertex="1" parent="1">
          <mxGeometry x="4650" y="1640" width="680" height="160" as="geometry" />
        </mxCell>
        <mxCell id="IgSBuEEvePQTgZvfwsGn-113" value="&lt;font style=&quot;font-size: 36px;&quot;&gt;REKLAMA NP. NOWEGO ALBUMU&lt;/font&gt;" style="rounded=0;whiteSpace=wrap;html=1;" vertex="1" parent="1">
          <mxGeometry x="5330" y="1640" width="1080" height="160" as="geometry" />
        </mxCell>
        <mxCell id="IgSBuEEvePQTgZvfwsGn-114" value="&lt;font style=&quot;font-size: 36px;&quot;&gt;LINKI DO STRON Z KONKRETNYMI INSTRUMENTAMI&lt;/font&gt;" style="rounded=0;whiteSpace=wrap;html=1;" vertex="1" parent="1">
          <mxGeometry x="4650" y="1800" width="350" height="920" as="geometry" />
        </mxCell>
        <mxCell id="IgSBuEEvePQTgZvfwsGn-115" value="&lt;font style=&quot;font-size: 36px;&quot;&gt;KOSZYK&lt;/font&gt;" style="rounded=0;whiteSpace=wrap;html=1;" vertex="1" parent="1">
          <mxGeometry x="6410" y="1640" width="160" height="160" as="geometry" />
        </mxCell>
        <mxCell id="IgSBuEEvePQTgZvfwsGn-125" value="&lt;font style=&quot;font-size: 24px;&quot;&gt;1&lt;/font&gt;" style="ellipse;whiteSpace=wrap;html=1;aspect=fixed;" vertex="1" parent="1">
          <mxGeometry x="6510" y="2120" width="50" height="50" as="geometry" />
        </mxCell>
        <mxCell id="IgSBuEEvePQTgZvfwsGn-126" value="&lt;font style=&quot;font-size: 24px;&quot;&gt;2&lt;/font&gt;" style="ellipse;whiteSpace=wrap;html=1;aspect=fixed;" vertex="1" parent="1">
          <mxGeometry x="6510" y="2195" width="50" height="50" as="geometry" />
        </mxCell>
        <mxCell id="IgSBuEEvePQTgZvfwsGn-127" value="&lt;font style=&quot;font-size: 24px;&quot;&gt;3&lt;/font&gt;" style="ellipse;whiteSpace=wrap;html=1;aspect=fixed;" vertex="1" parent="1">
          <mxGeometry x="6510" y="2270" width="50" height="50" as="geometry" />
        </mxCell>
        <mxCell id="IgSBuEEvePQTgZvfwsGn-128" value="&lt;font style=&quot;font-size: 24px;&quot;&gt;4&lt;/font&gt;" style="ellipse;whiteSpace=wrap;html=1;aspect=fixed;" vertex="1" parent="1">
          <mxGeometry x="6510" y="2350" width="50" height="50" as="geometry" />
        </mxCell>
        <mxCell id="IgSBuEEvePQTgZvfwsGn-129" value="&lt;font style=&quot;font-size: 36px;&quot;&gt;TWÓJ KOSZYK&lt;/font&gt;" style="rounded=0;whiteSpace=wrap;html=1;" vertex="1" parent="1">
          <mxGeometry x="5060" y="1840" width="440" height="50" as="geometry" />
        </mxCell>
        <mxCell id="IgSBuEEvePQTgZvfwsGn-130" value="&lt;font style=&quot;font-size: 36px;&quot;&gt;PRZEDMIOTY W KOSZYKU&lt;/font&gt;" style="rounded=0;whiteSpace=wrap;html=1;" vertex="1" parent="1">
          <mxGeometry x="5060" y="1920" width="1420" height="640" as="geometry" />
        </mxCell>
        <mxCell id="IgSBuEEvePQTgZvfwsGn-131" value="&lt;font style=&quot;font-size: 36px;&quot;&gt;DOSTAWA&lt;/font&gt;" style="rounded=0;whiteSpace=wrap;html=1;" vertex="1" parent="1">
          <mxGeometry x="6160" y="2600" width="320" height="60" as="geometry" />
        </mxCell>
        <mxCell id="IgSBuEEvePQTgZvfwsGn-132" value="" style="rounded=0;whiteSpace=wrap;html=1;" vertex="1" parent="1">
          <mxGeometry x="4650" y="2810" width="1920" height="1080" as="geometry" />
        </mxCell>
        <mxCell id="IgSBuEEvePQTgZvfwsGn-133" value="&lt;font style=&quot;font-size: 36px;&quot;&gt;SKLEP MUZYCZNY&lt;/font&gt;" style="rounded=0;whiteSpace=wrap;html=1;" vertex="1" parent="1">
          <mxGeometry x="4650" y="2810" width="680" height="160" as="geometry" />
        </mxCell>
        <mxCell id="IgSBuEEvePQTgZvfwsGn-134" value="&lt;font style=&quot;font-size: 36px;&quot;&gt;REKLAMA NP. NOWEGO ALBUMU&lt;/font&gt;" style="rounded=0;whiteSpace=wrap;html=1;" vertex="1" parent="1">
          <mxGeometry x="5330" y="2810" width="1080" height="160" as="geometry" />
        </mxCell>
        <mxCell id="IgSBuEEvePQTgZvfwsGn-135" value="&lt;font style=&quot;font-size: 36px;&quot;&gt;LINKI DO STRON Z KONKRETNYMI INSTRUMENTAMI&lt;/font&gt;" style="rounded=0;whiteSpace=wrap;html=1;" vertex="1" parent="1">
          <mxGeometry x="4650" y="2970" width="350" height="920" as="geometry" />
        </mxCell>
        <mxCell id="IgSBuEEvePQTgZvfwsGn-136" value="&lt;font style=&quot;font-size: 36px;&quot;&gt;KOSZYK&lt;/font&gt;" style="rounded=0;whiteSpace=wrap;html=1;" vertex="1" parent="1">
          <mxGeometry x="6410" y="2810" width="160" height="160" as="geometry" />
        </mxCell>
        <mxCell id="IgSBuEEvePQTgZvfwsGn-137" value="&lt;font style=&quot;font-size: 24px;&quot;&gt;1&lt;/font&gt;" style="ellipse;whiteSpace=wrap;html=1;aspect=fixed;" vertex="1" parent="1">
          <mxGeometry x="6510" y="3290" width="50" height="50" as="geometry" />
        </mxCell>
        <mxCell id="IgSBuEEvePQTgZvfwsGn-138" value="&lt;font style=&quot;font-size: 24px;&quot;&gt;2&lt;/font&gt;" style="ellipse;whiteSpace=wrap;html=1;aspect=fixed;" vertex="1" parent="1">
          <mxGeometry x="6510" y="3365" width="50" height="50" as="geometry" />
        </mxCell>
        <mxCell id="IgSBuEEvePQTgZvfwsGn-139" value="&lt;font style=&quot;font-size: 24px;&quot;&gt;3&lt;/font&gt;" style="ellipse;whiteSpace=wrap;html=1;aspect=fixed;" vertex="1" parent="1">
          <mxGeometry x="6510" y="3440" width="50" height="50" as="geometry" />
        </mxCell>
        <mxCell id="IgSBuEEvePQTgZvfwsGn-140" value="&lt;font style=&quot;font-size: 24px;&quot;&gt;4&lt;/font&gt;" style="ellipse;whiteSpace=wrap;html=1;aspect=fixed;" vertex="1" parent="1">
          <mxGeometry x="6510" y="3520" width="50" height="50" as="geometry" />
        </mxCell>
        <mxCell id="IgSBuEEvePQTgZvfwsGn-141" value="&lt;font style=&quot;font-size: 36px;&quot;&gt;WYBIERZ SPOSÓB DOSTAWY&lt;/font&gt;" style="rounded=0;whiteSpace=wrap;html=1;" vertex="1" parent="1">
          <mxGeometry x="5060" y="3010" width="560" height="50" as="geometry" />
        </mxCell>
        <mxCell id="IgSBuEEvePQTgZvfwsGn-142" value="&lt;font style=&quot;font-size: 36px;&quot;&gt;LISTA FIRM KURIERSKICH&lt;/font&gt;" style="rounded=0;whiteSpace=wrap;html=1;" vertex="1" parent="1">
          <mxGeometry x="5060" y="3090" width="280" height="640" as="geometry" />
        </mxCell>
        <mxCell id="IgSBuEEvePQTgZvfwsGn-143" value="&lt;font style=&quot;font-size: 36px;&quot;&gt;PŁATNOŚĆ&lt;/font&gt;" style="rounded=0;whiteSpace=wrap;html=1;" vertex="1" parent="1">
          <mxGeometry x="6120" y="3770" width="320" height="60" as="geometry" />
        </mxCell>
        <mxCell id="IgSBuEEvePQTgZvfwsGn-144" value="&lt;font style=&quot;font-size: 36px;&quot;&gt;KOSZYK&lt;/font&gt;" style="rounded=0;whiteSpace=wrap;html=1;" vertex="1" parent="1">
          <mxGeometry x="5060" y="3770" width="320" height="60" as="geometry" />
        </mxCell>
        <mxCell id="IgSBuEEvePQTgZvfwsGn-145" value="" style="rounded=0;whiteSpace=wrap;html=1;" vertex="1" parent="1">
          <mxGeometry x="5376" y="3090" width="1064" height="640" as="geometry" />
        </mxCell>
        <mxCell id="IgSBuEEvePQTgZvfwsGn-146" value="" style="rounded=0;whiteSpace=wrap;html=1;" vertex="1" parent="1">
          <mxGeometry x="5660" y="3150" width="300" height="60" as="geometry" />
        </mxCell>
        <mxCell id="IgSBuEEvePQTgZvfwsGn-147" value="" style="rounded=0;whiteSpace=wrap;html=1;" vertex="1" parent="1">
          <mxGeometry x="5660" y="3230" width="300" height="60" as="geometry" />
        </mxCell>
        <mxCell id="IgSBuEEvePQTgZvfwsGn-148" value="" style="rounded=0;whiteSpace=wrap;html=1;" vertex="1" parent="1">
          <mxGeometry x="5660" y="3310" width="300" height="60" as="geometry" />
        </mxCell>
        <mxCell id="IgSBuEEvePQTgZvfwsGn-149" value="" style="rounded=0;whiteSpace=wrap;html=1;" vertex="1" parent="1">
          <mxGeometry x="5661" y="3390" width="300" height="60" as="geometry" />
        </mxCell>
        <mxCell id="IgSBuEEvePQTgZvfwsGn-150" value="" style="rounded=0;whiteSpace=wrap;html=1;" vertex="1" parent="1">
          <mxGeometry x="5660" y="3470" width="300" height="60" as="geometry" />
        </mxCell>
        <mxCell id="IgSBuEEvePQTgZvfwsGn-151" value="IMIĘ" style="rounded=0;whiteSpace=wrap;html=1;" vertex="1" parent="1">
          <mxGeometry x="5400" y="3150" width="240" height="60" as="geometry" />
        </mxCell>
        <mxCell id="IgSBuEEvePQTgZvfwsGn-152" value="NAZWISKO" style="rounded=0;whiteSpace=wrap;html=1;" vertex="1" parent="1">
          <mxGeometry x="5400" y="3230" width="240" height="60" as="geometry" />
        </mxCell>
        <mxCell id="IgSBuEEvePQTgZvfwsGn-153" value="WOJEWÓDZTWO" style="rounded=0;whiteSpace=wrap;html=1;" vertex="1" parent="1">
          <mxGeometry x="5400" y="3310" width="240" height="60" as="geometry" />
        </mxCell>
        <mxCell id="IgSBuEEvePQTgZvfwsGn-154" value="ADRES ZAMIESZKANIA" style="rounded=0;whiteSpace=wrap;html=1;" vertex="1" parent="1">
          <mxGeometry x="5400" y="3390" width="240" height="60" as="geometry" />
        </mxCell>
        <mxCell id="IgSBuEEvePQTgZvfwsGn-155" value="KOD POCZTOWY" style="rounded=0;whiteSpace=wrap;html=1;" vertex="1" parent="1">
          <mxGeometry x="5400" y="3470" width="240" height="60" as="geometry" />
        </mxCell>
        <mxCell id="IgSBuEEvePQTgZvfwsGn-156" value="" style="rounded=0;whiteSpace=wrap;html=1;" vertex="1" parent="1">
          <mxGeometry x="5660" y="3550" width="300" height="60" as="geometry" />
        </mxCell>
        <mxCell id="IgSBuEEvePQTgZvfwsGn-157" value="" style="rounded=0;whiteSpace=wrap;html=1;" vertex="1" parent="1">
          <mxGeometry x="5660" y="3630" width="300" height="60" as="geometry" />
        </mxCell>
        <mxCell id="IgSBuEEvePQTgZvfwsGn-158" value="NUMER TELEFONU" style="rounded=0;whiteSpace=wrap;html=1;" vertex="1" parent="1">
          <mxGeometry x="5400" y="3550" width="240" height="60" as="geometry" />
        </mxCell>
        <mxCell id="IgSBuEEvePQTgZvfwsGn-159" value="ADRES EMAIL" style="rounded=0;whiteSpace=wrap;html=1;" vertex="1" parent="1">
          <mxGeometry x="5400" y="3630" width="240" height="60" as="geometry" />
        </mxCell>
        <mxCell id="IgSBuEEvePQTgZvfwsGn-160" value="" style="rounded=0;whiteSpace=wrap;html=1;" vertex="1" parent="1">
          <mxGeometry x="4650" y="3950" width="1920" height="1080" as="geometry" />
        </mxCell>
        <mxCell id="IgSBuEEvePQTgZvfwsGn-161" value="&lt;font style=&quot;font-size: 36px;&quot;&gt;SKLEP MUZYCZNY&lt;/font&gt;" style="rounded=0;whiteSpace=wrap;html=1;" vertex="1" parent="1">
          <mxGeometry x="4650" y="3950" width="680" height="160" as="geometry" />
        </mxCell>
        <mxCell id="IgSBuEEvePQTgZvfwsGn-162" value="&lt;font style=&quot;font-size: 36px;&quot;&gt;REKLAMA NP. NOWEGO ALBUMU&lt;/font&gt;" style="rounded=0;whiteSpace=wrap;html=1;" vertex="1" parent="1">
          <mxGeometry x="5330" y="3950" width="1080" height="160" as="geometry" />
        </mxCell>
        <mxCell id="IgSBuEEvePQTgZvfwsGn-163" value="&lt;font style=&quot;font-size: 36px;&quot;&gt;LINKI DO STRON Z KONKRETNYMI INSTRUMENTAMI&lt;/font&gt;" style="rounded=0;whiteSpace=wrap;html=1;" vertex="1" parent="1">
          <mxGeometry x="4650" y="4110" width="350" height="920" as="geometry" />
        </mxCell>
        <mxCell id="IgSBuEEvePQTgZvfwsGn-164" value="&lt;font style=&quot;font-size: 36px;&quot;&gt;KOSZYK&lt;/font&gt;" style="rounded=0;whiteSpace=wrap;html=1;" vertex="1" parent="1">
          <mxGeometry x="6410" y="3950" width="160" height="160" as="geometry" />
        </mxCell>
        <mxCell id="IgSBuEEvePQTgZvfwsGn-165" value="&lt;font style=&quot;font-size: 24px;&quot;&gt;1&lt;/font&gt;" style="ellipse;whiteSpace=wrap;html=1;aspect=fixed;" vertex="1" parent="1">
          <mxGeometry x="6510" y="4430" width="50" height="50" as="geometry" />
        </mxCell>
        <mxCell id="IgSBuEEvePQTgZvfwsGn-166" value="&lt;font style=&quot;font-size: 24px;&quot;&gt;2&lt;/font&gt;" style="ellipse;whiteSpace=wrap;html=1;aspect=fixed;" vertex="1" parent="1">
          <mxGeometry x="6510" y="4505" width="50" height="50" as="geometry" />
        </mxCell>
        <mxCell id="IgSBuEEvePQTgZvfwsGn-167" value="&lt;font style=&quot;font-size: 24px;&quot;&gt;3&lt;/font&gt;" style="ellipse;whiteSpace=wrap;html=1;aspect=fixed;" vertex="1" parent="1">
          <mxGeometry x="6510" y="4580" width="50" height="50" as="geometry" />
        </mxCell>
        <mxCell id="IgSBuEEvePQTgZvfwsGn-168" value="&lt;font style=&quot;font-size: 24px;&quot;&gt;4&lt;/font&gt;" style="ellipse;whiteSpace=wrap;html=1;aspect=fixed;" vertex="1" parent="1">
          <mxGeometry x="6510" y="4660" width="50" height="50" as="geometry" />
        </mxCell>
        <mxCell id="IgSBuEEvePQTgZvfwsGn-169" value="&lt;font style=&quot;font-size: 36px;&quot;&gt;WYBIERZ SPOSÓB PŁATNOŚCI&lt;/font&gt;" style="rounded=0;whiteSpace=wrap;html=1;" vertex="1" parent="1">
          <mxGeometry x="5060" y="4150" width="590" height="50" as="geometry" />
        </mxCell>
        <mxCell id="IgSBuEEvePQTgZvfwsGn-170" value="&lt;font style=&quot;font-size: 36px;&quot;&gt;SPOSOBY PŁATNOŚCI&lt;/font&gt;" style="rounded=0;whiteSpace=wrap;html=1;" vertex="1" parent="1">
          <mxGeometry x="5060" y="4230" width="1420" height="640" as="geometry" />
        </mxCell>
        <mxCell id="IgSBuEEvePQTgZvfwsGn-171" value="&lt;font style=&quot;font-size: 36px;&quot;&gt;PODSUMOWANIE&lt;/font&gt;" style="rounded=0;whiteSpace=wrap;html=1;" vertex="1" parent="1">
          <mxGeometry x="6160" y="4910" width="320" height="60" as="geometry" />
        </mxCell>
        <mxCell id="IgSBuEEvePQTgZvfwsGn-172" value="&lt;font style=&quot;font-size: 36px;&quot;&gt;DOSTAWA&lt;/font&gt;" style="rounded=0;whiteSpace=wrap;html=1;" vertex="1" parent="1">
          <mxGeometry x="5060" y="4910" width="320" height="60" as="geometry" />
        </mxCell>
        <mxCell id="IgSBuEEvePQTgZvfwsGn-174" value="&lt;font style=&quot;font-size: 36px;&quot;&gt;ZAPŁAĆ (GUZIK ODSYŁAJĄCY DO PŁATNOŚCI)&lt;/font&gt;" style="rounded=0;whiteSpace=wrap;html=1;" vertex="1" parent="1">
          <mxGeometry x="5060" y="4750" width="1420" height="120" as="geometry" />
        </mxCell>
        <mxCell id="IgSBuEEvePQTgZvfwsGn-175" value="" style="rounded=0;whiteSpace=wrap;html=1;" vertex="1" parent="1">
          <mxGeometry x="4650" y="5120" width="1920" height="1080" as="geometry" />
        </mxCell>
        <mxCell id="IgSBuEEvePQTgZvfwsGn-176" value="&lt;font style=&quot;font-size: 36px;&quot;&gt;SKLEP MUZYCZNY&lt;/font&gt;" style="rounded=0;whiteSpace=wrap;html=1;" vertex="1" parent="1">
          <mxGeometry x="4650" y="5120" width="680" height="160" as="geometry" />
        </mxCell>
        <mxCell id="IgSBuEEvePQTgZvfwsGn-177" value="&lt;font style=&quot;font-size: 36px;&quot;&gt;REKLAMA NP. NOWEGO ALBUMU&lt;/font&gt;" style="rounded=0;whiteSpace=wrap;html=1;" vertex="1" parent="1">
          <mxGeometry x="5330" y="5120" width="1080" height="160" as="geometry" />
        </mxCell>
        <mxCell id="IgSBuEEvePQTgZvfwsGn-178" value="&lt;font style=&quot;font-size: 36px;&quot;&gt;LINKI DO STRON Z KONKRETNYMI INSTRUMENTAMI&lt;/font&gt;" style="rounded=0;whiteSpace=wrap;html=1;" vertex="1" parent="1">
          <mxGeometry x="4650" y="5280" width="350" height="920" as="geometry" />
        </mxCell>
        <mxCell id="IgSBuEEvePQTgZvfwsGn-179" value="&lt;font style=&quot;font-size: 36px;&quot;&gt;KOSZYK&lt;/font&gt;" style="rounded=0;whiteSpace=wrap;html=1;" vertex="1" parent="1">
          <mxGeometry x="6410" y="5120" width="160" height="160" as="geometry" />
        </mxCell>
        <mxCell id="IgSBuEEvePQTgZvfwsGn-180" value="&lt;font style=&quot;font-size: 24px;&quot;&gt;1&lt;/font&gt;" style="ellipse;whiteSpace=wrap;html=1;aspect=fixed;" vertex="1" parent="1">
          <mxGeometry x="6510" y="5600" width="50" height="50" as="geometry" />
        </mxCell>
        <mxCell id="IgSBuEEvePQTgZvfwsGn-181" value="&lt;font style=&quot;font-size: 24px;&quot;&gt;2&lt;/font&gt;" style="ellipse;whiteSpace=wrap;html=1;aspect=fixed;" vertex="1" parent="1">
          <mxGeometry x="6510" y="5675" width="50" height="50" as="geometry" />
        </mxCell>
        <mxCell id="IgSBuEEvePQTgZvfwsGn-182" value="&lt;font style=&quot;font-size: 24px;&quot;&gt;3&lt;/font&gt;" style="ellipse;whiteSpace=wrap;html=1;aspect=fixed;" vertex="1" parent="1">
          <mxGeometry x="6510" y="5750" width="50" height="50" as="geometry" />
        </mxCell>
        <mxCell id="IgSBuEEvePQTgZvfwsGn-183" value="&lt;font style=&quot;font-size: 24px;&quot;&gt;4&lt;/font&gt;" style="ellipse;whiteSpace=wrap;html=1;aspect=fixed;" vertex="1" parent="1">
          <mxGeometry x="6510" y="5830" width="50" height="50" as="geometry" />
        </mxCell>
        <mxCell id="IgSBuEEvePQTgZvfwsGn-184" value="&lt;font style=&quot;font-size: 36px;&quot;&gt;PODSUMOWANIE&lt;/font&gt;" style="rounded=0;whiteSpace=wrap;html=1;" vertex="1" parent="1">
          <mxGeometry x="5060" y="5320" width="590" height="50" as="geometry" />
        </mxCell>
        <mxCell id="IgSBuEEvePQTgZvfwsGn-185" value="&lt;span style=&quot;font-size: 36px;&quot;&gt;WSZYSTKIE INFORMACJE Z POPRZEDNICH STRON NAPISANE NA TEJ STRONIE&lt;/span&gt;" style="rounded=0;whiteSpace=wrap;html=1;" vertex="1" parent="1">
          <mxGeometry x="5060" y="5400" width="1420" height="640" as="geometry" />
        </mxCell>
        <mxCell id="IgSBuEEvePQTgZvfwsGn-187" value="&lt;span style=&quot;font-size: 36px;&quot;&gt;PŁATNOŚĆ&lt;/span&gt;" style="rounded=0;whiteSpace=wrap;html=1;" vertex="1" parent="1">
          <mxGeometry x="5060" y="6080" width="320" height="60" as="geometry" />
        </mxCell>
        <mxCell id="IgSBuEEvePQTgZvfwsGn-190" value="&lt;span style=&quot;font-size: 36px;&quot;&gt;STRONA GŁÓWNA&lt;/span&gt;" style="rounded=0;whiteSpace=wrap;html=1;" vertex="1" parent="1">
          <mxGeometry x="6160" y="6080" width="320" height="60" as="geometry" />
        </mxCell>
      </root>
    </mxGraphModel>
  </diagram>
</mxfile>
